<svg version="1.1" id="Layer_1" xmlns="http://www.w3.org/2000/svg" xmlns:xlink="http://www.w3.org/1999/xlink" x="0px" y="0px"
	 viewBox="0 0 408.6 55.6" style="enable-background:new 0 0 408.6 55.6;" xml:space="preserve">
<style type="text/css">
	.st0{fill:#eee;stroke:#000000;stroke-width:0.25;stroke-miterlimit:10;}
</style>
<g>

		<image style="overflow:visible;opacity:0.5;" width="416" height="62" xlink:href="7000EE1A.png"  transform="matrix(1 0 0 1 -3.6651 -2.3375)">
	</image>
	<g>
		<g>
			<path class="st0" d="M28.8,4.4c-0.8,1.1-1.8,3-3,5.7c-1.2,2.7-2.5,5.8-3.7,9.2c2.3-4.2,5-7.9,8-11c2.8-2.9,5-4.5,6.7-4.8
				c1.3-0.2,2.1,0.5,2.4,2c-0.1,1.2-0.4,2.4-0.8,3.5c-0.5,1.1-1,2.1-1.7,2.9c-0.7,0.8-1.5,1.6-2.4,2.4c-1,0.8-1.9,1.5-2.7,2
				c-0.8,0.5-1.8,1.1-2.8,1.6c2.9,0.3,5.3,0.9,7.3,1.7c2,0.8,3.4,1.8,4.3,2.9c0.9,1.1,1.4,2.3,1.6,3.7c0.2,1.4,0,2.8-0.6,4.2
				c-0.6,1.5-1.4,2.9-2.5,4.4c-1.1,1.5-2.4,2.9-4,4.3c-1.6,1.4-3.3,2.7-5.1,3.9c-3.5,2.2-7.2,3.8-11.3,4.7c-4,0.9-8,0.9-11.7,0
				c-1.9-0.6-3.4-1.5-4.5-2.7c-1.1-1.2-1.8-2.5-2-4.1C0,39.6,0.4,37.8,1.4,36c1.7-2.8,4.2-5.2,7.3-7.2c3.2-2,6.6-3.3,10.2-4.2
				c2-7.3,3.9-12.9,5.8-16.8c-0.9,0.9-2,1.5-3.2,1.8c-1.2,0.3-2.2,0.5-3,0.4c-0.8-0.1-1.5-0.2-2.1-0.4c-0.4-0.2-0.6-0.5-0.6-1
				c0-0.4,0.2-0.6,0.5-0.7c0.2-0.1,0.5,0,0.7,0.3c0.2,0.2,0.5,0.4,1,0.5c0.5,0.2,1.1,0.2,1.8,0.2c0.8,0,1.6-0.2,2.4-0.5
				c0.8-0.3,1.7-1,2.7-1.9c1-0.9,1.9-2.2,2.7-3.7c0.3-0.5,0.6-0.6,1.1-0.5c0.4,0.1,0.7,0.4,0.7,0.9C29.4,3.6,29.2,4,28.8,4.4z
				 M18.4,26.5l0.2-0.7c-2.2,0.6-4.4,1.3-6.3,2.2c-2,0.9-3.9,2.1-5.7,3.6c-1.8,1.5-3.3,3.2-4.3,5c-1.3,2.5-1.5,4.6-0.6,6.4
				c0.9,1.8,2.8,3.1,5.6,4c3.4,0.9,7.1,0.8,11.1-0.2c4-1,7.7-2.6,10.9-4.8c1.6-1.1,3-2.2,4.3-3.4c1.3-1.2,2.4-2.5,3.4-3.7
				s1.7-2.6,2.2-3.8c0.5-1.3,0.8-2.5,0.9-3.7c0.1-1.2-0.2-2.3-0.8-3.3s-1.4-1.9-2.6-2.7c-1.1-0.8-2.7-1.4-4.7-1.8
				c-2-0.4-4.3-0.7-6.9-0.7c-0.5,0.1-0.7,0-0.8-0.3c-0.1-0.3,0.1-0.6,0.6-0.8c0.2-0.1,0.4-0.2,0.6-0.2c3.6-1.3,6.6-3.1,9-5.4
				c2.4-2.3,3.6-4.5,3.6-6.9c-0.2-1.5-1.4-1.4-3.4,0.1c-2.1,1.6-4.6,4.2-7.5,8c-2.9,3.8-5.2,7.4-6.8,10.8l0,0.1
				c3.5-0.6,6.6-0.7,9.5-0.1c0.6,0.1,1.1,0.4,1.4,0.7c0.3,0.4,0.3,0.7,0.2,1c-0.2,0.4-0.4,0.5-0.7,0.5c-0.2,0-0.3-0.2-0.2-0.4
				c0,0,0,0,0-0.1c0.1-0.1,0.1-0.3,0.1-0.4c0-0.1-0.1-0.2-0.4-0.3c-0.2-0.1-0.5-0.2-0.9-0.3c-2.5-0.4-5.6-0.2-9.4,0.6
				c-1.1,3.3-2,6.3-2.6,9c-0.2,0.9-0.5,2.2-0.8,4c-0.3,1.7-0.6,3.1-0.8,4c-0.2,0.9-0.4,1.4-0.6,1.5c-0.5,0.3-0.9,0-0.9-0.9
				c-0.2-1.7,0.3-4.5,1.3-8.4C16.4,31.6,17.3,28.8,18.4,26.5z"/>
			<path class="st0" d="M49.2,24.8c-0.4,0.5-1,1-1.8,1.5c-0.8,0.5-1.6,0.9-2.3,1.2c-0.3,0.6-0.5,1.1-0.6,1.6c-0.1,0.5-0.1,0.9,0,1.3
				c0.1,0.4,0.3,0.6,0.7,0.7c1.4,0.3,2.9-0.2,4.5-1.4s2.9-2.5,3.6-3.8c0.1-0.2,0.3-0.3,0.6-0.3c0.2,0,0.3,0.1,0.2,0.4
				c-0.3,0.5-0.8,1.2-1.4,1.9c-0.6,0.7-1.3,1.4-2.2,2.1s-1.7,1.3-2.7,1.7c-1,0.4-1.9,0.5-2.8,0.4c-0.9-0.2-1.4-0.8-1.5-1.9
				c-0.1-1,0.2-2.2,0.9-3.4c0.6-1.2,1.5-2.2,2.5-3c0.6-0.5,1.3-0.8,2-0.7c0.6,0,0.9,0.3,0.9,0.7C49.8,24.1,49.6,24.4,49.2,24.8z
				 M47.7,24.2c-0.5,0.4-1,0.9-1.6,1.7c0.8-0.4,1.5-0.9,2.2-1.6c0.4-0.4,0.5-0.6,0.3-0.6C48.5,23.7,48.1,23.8,47.7,24.2z"/>
			<path class="st0" d="M55.9,15.9c-4.2,0.4-7.8,0.9-10.9,1.4c0.1,0,0.2,0.1,0.3,0.2s0.2,0.2,0.2,0.3c0.1,0.2,0,0.4-0.2,0.4
				c-0.2,0-0.3-0.1-0.3-0.3c-0.2-0.2-0.9-0.3-2.1-0.2s-2.1,0.2-2.4,0.4c-0.3,0.3-0.6,0.3-0.8,0c-0.2-0.3-0.2-0.6,0.1-0.9
				c0.1-0.1,0.2-0.2,0.4-0.3c4.6-1.2,10-2,16.1-2.6c1.4-4.2,3-8.1,4.6-11.7c0.3-0.5,0.6-0.9,1-1.2c0.3-0.2,0.6-0.3,0.9-0.3
				c0.3,0.1,0.4,0.2,0.6,0.5c0,0.1,0.1,0.3,0.1,0.5c0,0.2,0,0.3,0,0.5c0,0.2-0.1,0.4-0.1,0.5c0,0.2-0.1,0.4-0.2,0.6
				c-0.1,0.3-0.2,0.5-0.3,0.6c-0.1,0.2-0.2,0.4-0.3,0.7c-0.2,0.3-0.3,0.6-0.4,0.8c-0.1,0.2-0.3,0.5-0.5,0.9
				c-0.2,0.4-0.4,0.7-0.5,0.9c-0.9,1.8-1.9,4-2.9,6.7c1.1-0.1,2.7-0.2,5-0.3c0.8-2.3,1.6-4.2,2.3-5.6c-0.7,0-0.7-0.8,0.2-2.4
				c0.8-1.5,1.8-2.9,3-4.2C68.7,2,68.9,1.8,69,1.7c0.7-0.8,1.4-1.1,2-0.9c0.6,0.2,0.8,0.6,0.7,1.4c-0.1,0.9-0.6,1.8-1.5,3
				c-1.3,2-2.7,4.9-4.4,8.9c5.6-0.2,10.7-0.2,15.3,0c0.6,0,0.9,0.1,1,0.3c0,0.2-0.1,0.3-0.4,0.4c-0.2,0.1-0.5,0.1-0.8,0.1
				c-4.1-0.2-9.3-0.1-15.5,0.3c-1,2.4-1.9,4.9-2.7,7.4c-0.8,2.5-1.5,5-2.1,7.5c-0.6,2.6-0.9,4.9-1.1,6.9s0,3.8,0.5,5.2
				c0.5,1.4,1.3,2.3,2.5,2.6c0.9,0.2,1.9,0.1,3-0.3s2.1-1,3.1-1.8c1-0.8,2.1-1.8,3.2-3c1.1-1.2,2.1-2.4,3-3.6
				c0.9-1.2,1.8-2.5,2.8-3.8c0.9-1.4,1.7-2.5,2.3-3.5c0.6-1,1.2-1.9,1.7-2.8c0.1-0.3,0.4-0.4,0.6-0.3c0.2,0,0.2,0.2,0.1,0.4
				c-0.6,1-1.2,2-1.8,3c-0.6,1-1.4,2.3-2.4,3.8c-1,1.5-2,2.8-3,4.1s-2.1,2.5-3.3,3.8c-1.2,1.3-2.4,2.3-3.5,3.1s-2.2,1.4-3.4,1.8
				s-2.3,0.4-3.3,0c-1.1-0.4-1.9-1.1-2.5-2.3c-0.6-1.1-1-2.6-1-4.2c-0.1-1.7,0-3.5,0.2-5.5s0.5-4,1.1-6.3c0.5-2.2,1-4.3,1.6-6.3
				c0.6-2,1.2-3.9,1.8-5.8c-1.6,0.1-3.3,0.3-5.1,0.4c-1,2.8-1.9,5.8-2.7,8.9c-0.8,3.1-1.4,6-1.8,8.5c-0.4,2.5-0.6,4.7-0.6,6.4
				c0,1.8,0.3,2.7,0.8,3c0.3,0,0.5,0.1,0.5,0.3c0,0.2-0.1,0.4-0.4,0.5c-0.1,0-0.2,0-0.4,0c-0.9-0.3-1.4-1.4-1.6-3.5s0-4.5,0.5-7.3
				s1-5.7,1.7-8.6C54.3,20.9,55.1,18.3,55.9,15.9z"/>
			<path class="st0" d="M85.6,24.8c-0.4,0.5-1,1-1.8,1.5c-0.8,0.5-1.6,0.9-2.3,1.2c-0.3,0.6-0.5,1.1-0.6,1.6c-0.1,0.5-0.1,0.9,0,1.3
				c0.1,0.4,0.3,0.6,0.7,0.7c1.4,0.3,2.9-0.2,4.5-1.4s2.9-2.5,3.6-3.8c0.1-0.2,0.3-0.3,0.6-0.3c0.2,0,0.3,0.1,0.2,0.4
				c-0.3,0.5-0.8,1.2-1.4,1.9c-0.6,0.7-1.3,1.4-2.2,2.1s-1.7,1.3-2.7,1.7c-1,0.4-1.9,0.5-2.8,0.4c-0.9-0.2-1.4-0.8-1.5-1.9
				c-0.1-1,0.2-2.2,0.9-3.4c0.6-1.2,1.5-2.2,2.5-3c0.6-0.5,1.3-0.8,2-0.7c0.6,0,0.9,0.3,0.9,0.7C86.1,24.1,86,24.4,85.6,24.8z
				 M84.1,24.2c-0.5,0.4-1,0.9-1.6,1.7c0.8-0.4,1.5-0.9,2.2-1.6c0.4-0.4,0.5-0.6,0.3-0.6C84.8,23.7,84.5,23.8,84.1,24.2z"/>
			<path class="st0" d="M96.8,34.3c-0.4,0.4-0.8,0.7-1.2,1c-0.4,0.3-0.9,0.5-1.5,0.7s-1,0.2-1.4-0.1c-0.4-0.2-0.7-0.7-0.9-1.4
				c-0.1-0.6-0.1-1.3,0.1-2.2c0.2-0.9,0.5-1.8,0.9-2.6c0.4-0.8,0.7-1.7,1.1-2.6c0.4-0.9,0.6-1.5,0.8-2s0.2-0.8,0-1
				c-0.2-0.1-1.3,0-3.4,0.3l-1,1.7c-0.1,0.3-0.4,0.4-0.6,0.3c-0.2,0-0.2-0.2-0.1-0.4c0.3-0.5,0.5-1,0.8-1.5
				c-2.4,0.2-3.9-0.3-4.5-1.5c-0.5-1-0.4-2.3,0.2-4c0.6-1.7,1.5-3.3,2.6-4.7s2.3-2.6,3.6-3.6c1.3-0.9,2.4-1.1,3.3-0.7
				c0.6,0.3,0.8,0.9,0.9,1.9c0,1-0.2,2-0.5,3c-0.4,1.1-0.8,2.2-1.3,3.4c-0.5,1.2-1,2.1-1.3,2.8c-0.4,0.7-0.6,1.1-0.8,1.4
				c1.7-0.3,2.9-0.3,3.6-0.1c0.7,0.2,1,0.6,1.1,1.3c0,0.5-0.3,1.4-1,2.7S94.8,29,94,30.5c-0.7,1.5-1.1,2.7-1.2,3.7
				c0,0.9,0.4,1.2,1.4,0.9c0.6-0.2,1.2-0.6,1.8-1.1c1.4-1.4,2.6-2.7,3.5-3.9c0.9-1.2,1.8-2.6,2.7-4.2c0.1-0.3,0.4-0.4,0.6-0.3
				c0.2,0,0.2,0.2,0.1,0.4c-0.6,1-1,1.9-1.5,2.5c-0.4,0.7-1,1.5-1.8,2.6C98.8,32.1,97.9,33.2,96.8,34.3z M95.2,10.8
				c-0.7-0.1-1.7,0.8-3.2,2.5c-1.4,1.7-2.6,3.6-3.5,5.6c-0.9,2-1.1,3.2-0.4,3.7c0.2,0.2,0.8,0.2,1.6,0.2c0.8,0,1.5-0.1,1.8-0.2
				c0.8-1.2,1.8-3.4,3.1-6.7C95.9,12.5,96.1,10.9,95.2,10.8z"/>
			<path class="st0" d="M111.8,22.1c0.7-2.1,1.7-4.5,2.9-7.2c1.2-2.7,2.2-4.6,2.8-5.7c-0.7,0.6-1.5,1.1-2.4,1.4
				c-0.8,0.3-1.7,0.5-2.4,0.5c-0.8,0-1.4,0-2-0.1c-0.6-0.1-1.1-0.2-1.5-0.4c-0.4-0.2-0.6-0.5-0.6-1c0-0.4,0.2-0.6,0.5-0.7
				c0.2-0.1,0.5,0,0.7,0.3c0.2,0.2,0.5,0.4,1,0.5c0.4,0.1,1,0.2,1.8,0.2s1.5-0.2,2.3-0.5c0.8-0.3,1.7-1,2.7-1.9s1.9-2.2,2.8-3.6
				c0.4-0.7,1.1-1.2,1.9-1.3c0.7-0.1,1.2,0.1,1.4,0.6c0.4,0.8-0.3,2-1.8,3.6c-0.2,0.2-0.4,0.4-0.6,0.6c-1.1,1.1-2.1,2.6-3,4.4
				c-0.9,1.9-2.1,4.6-3.6,8.4c-1.1,2.9-2,5.8-2.8,8.6c-0.8,2.8-1.3,5.6-1.7,8.3c-0.4,2.7-0.3,4.9,0.2,6.8c0.5,1.8,1.5,2.9,2.9,3.3
				c0.9,0.2,1.9,0.1,3-0.4c1.1-0.5,2.2-1.2,3.2-2.1c1-0.9,2.2-2.1,3.3-3.5c1.2-1.4,2.3-2.8,3.2-4s1.9-2.7,2.9-4.3
				c1-1.6,1.8-2.9,2.4-3.8s1.1-1.9,1.7-2.9c0.1-0.3,0.4-0.4,0.6-0.3c0.2,0,0.2,0.2,0.1,0.4c-0.6,1.1-1.2,2.2-1.8,3.2
				c-0.6,1-1.4,2.4-2.5,4.1c-1.1,1.7-2.1,3.2-3.1,4.6c-1,1.4-2.1,2.8-3.4,4.3c-1.3,1.5-2.5,2.7-3.6,3.6c-1.1,0.9-2.3,1.6-3.5,2.1
				c-1.2,0.5-2.3,0.5-3.3,0.2c-1-0.3-1.9-1-2.5-1.9c-0.6-1-1.1-2.1-1.2-3.5c-0.2-1.4-0.3-2.9-0.2-4.5s0.2-3.4,0.6-5.2
				c0.3-1.9,0.7-3.7,1.1-5.4C110.8,25.6,111.3,23.8,111.8,22.1z"/>
			<path class="st0" d="M134.1,32.7c-0.8,0-1.3-0.2-1.7-0.9c-0.3-0.6-0.5-1.3-0.4-2.2c0.1-0.8,0.2-1.7,0.5-2.5s0.6-1.5,1-1.9
				c0.2-0.2,0.4-0.3,0.7-0.2c0.3,0.1,0.4,0.2,0.5,0.4c0.1,0.2,0,0.5-0.2,0.8c-0.4,0.6-0.8,1.5-1.1,2.8c-0.5,1.8-0.3,2.8,0.5,2.9
				c0.1,0,0.2,0,0.2,0c0.5,0,1.3-0.8,2.3-2.2c1-1.4,1.8-2.7,2.4-3.8c0.1-0.2,0.3-0.3,0.6-0.3c0.2,0,0.3,0.1,0.2,0.4
				c0,0-0.1,0.2-0.3,0.5c-0.2,0.3-0.3,0.5-0.4,0.8c-0.1,0.2-0.3,0.5-0.5,0.9c-0.2,0.4-0.4,0.7-0.6,1c-0.2,0.3-0.4,0.6-0.7,1
				s-0.5,0.7-0.8,1c-0.2,0.3-0.5,0.5-0.7,0.8c-0.3,0.2-0.5,0.4-0.8,0.6C134.5,32.6,134.3,32.7,134.1,32.7z M134.4,23.3
				c0-0.2,0.1-0.4,0.3-0.5c0.2-0.1,0.4-0.1,0.7,0c0.2,0.1,0.3,0.3,0.3,0.5c0,0.3-0.1,0.5-0.3,0.7c-0.2,0.1-0.4,0.2-0.7,0
				S134.4,23.6,134.4,23.3z"/>
			<path class="st0" d="M148.8,25.9c0.2-0.3,0.4-0.4,0.6-0.3c0.2,0,0.2,0.2,0.1,0.4c-1.3,2.1-3.2,3-5.7,2.7c0,0.1-0.2,0.4-0.4,0.8
				c-0.2,0.5-0.4,0.8-0.5,1.1c-0.1,0.3-0.3,0.7-0.6,1.2c-0.2,0.5-0.5,1-0.6,1.3c-0.2,0.4-0.4,0.8-0.7,1.2c-0.2,0.5-0.5,0.9-0.7,1.2
				c-0.2,0.3-0.4,0.6-0.7,0.9c-0.2,0.3-0.5,0.5-0.7,0.7c-0.2,0.2-0.4,0.2-0.6,0.2c-0.5,0-0.9-0.3-1.1-1.1c-0.2-0.7-0.3-1.7-0.2-2.8
				s0.3-2.3,0.6-3.5c0.3-1.2,0.6-2.4,0.9-3.4c-0.4-0.9,0.1-1.9,1.5-3l0.1-0.1c0.5-0.3,0.8-0.2,1,0.1c0.1,0.3,0,0.9-0.4,1.6
				c-0.7,1.4-1.4,3.6-2.1,6.6c-0.7,3-0.8,4.5-0.3,4.7c0.2,0,0.5-0.2,0.9-0.6s0.8-1.1,1.2-1.9c0.4-0.8,0.8-1.5,1.1-2.2
				c0.3-0.7,0.7-1.4,1-2.1c0.3-0.7,0.5-1.1,0.5-1.2c0.2-0.4,0.5-0.6,1-0.5C146.2,28.3,147.7,27.6,148.8,25.9z"/>
			<path class="st0" d="M149.7,32.7c-0.8,0-1.3-0.2-1.7-0.9c-0.3-0.6-0.5-1.3-0.4-2.2c0.1-0.8,0.2-1.7,0.5-2.5s0.6-1.5,1-1.9
				c0.2-0.2,0.4-0.3,0.7-0.2c0.3,0.1,0.4,0.2,0.5,0.4c0.1,0.2,0,0.5-0.2,0.8c-0.4,0.6-0.8,1.5-1.1,2.8c-0.5,1.8-0.3,2.8,0.5,2.9
				c0.1,0,0.2,0,0.2,0c0.5,0,1.3-0.8,2.3-2.2c1-1.4,1.8-2.7,2.4-3.8c0.1-0.2,0.3-0.3,0.6-0.3c0.2,0,0.3,0.1,0.2,0.4
				c0,0-0.1,0.2-0.3,0.5c-0.2,0.3-0.3,0.5-0.4,0.8c-0.1,0.2-0.3,0.5-0.5,0.9c-0.2,0.4-0.4,0.7-0.6,1c-0.2,0.3-0.4,0.6-0.7,1
				s-0.5,0.7-0.8,1c-0.2,0.3-0.5,0.5-0.7,0.8c-0.3,0.2-0.5,0.4-0.8,0.6C150.1,32.6,149.9,32.7,149.7,32.7z M150,23.3
				c0-0.2,0.1-0.4,0.3-0.5c0.2-0.1,0.4-0.1,0.7,0c0.2,0.1,0.3,0.3,0.3,0.5c0,0.3-0.1,0.5-0.3,0.7c-0.2,0.1-0.4,0.2-0.7,0
				S150,23.6,150,23.3z"/>
			<path class="st0" d="M152.6,32.4c0.1-1.3,0.4-2.7,1-4.4s1.1-2.9,1.6-3.9c0.2-0.4,0.5-0.6,0.9-0.5c0.3,0.1,0.5,0.3,0.4,0.7
				c0,0.2-0.1,0.3-0.2,0.5c-0.4,0.6-0.8,1.5-1.3,2.5c-0.4,1-0.8,2-1,2.8c0.4-0.9,1.1-1.9,1.9-3s1.5-1.8,2-2c0.4-0.2,0.7-0.1,0.9,0.1
				c0.2,0.2,0.3,0.5,0.3,0.9c0,0.3,0,0.6-0.1,1c-0.1,0.4-0.1,0.8-0.2,1.1s-0.1,0.6-0.1,0.9c0,0.3,0.1,0.4,0.2,0.5
				c0.3,0.2,0.8-0.1,1.4-0.9c0.6-0.8,1.2-1.7,1.8-2.8c0.1-0.3,0.3-0.3,0.6-0.2c0.2,0.1,0.2,0.2,0.2,0.3c-0.8,1.4-1.6,2.5-2.3,3.4
				c-0.7,0.8-1.3,1.2-1.9,1c-0.4-0.1-0.6-0.5-0.7-1c-0.1-0.5-0.1-1,0-1.5c0.1-0.5,0.2-1,0.3-1.4c0-0.4,0-0.6-0.1-0.6
				c-0.2-0.1-0.6,0.3-1.3,1.1c-0.7,0.8-1.4,1.8-2.1,3c-0.7,1.2-1.2,2.2-1.5,3c-0.1,0.3-0.2,0.4-0.4,0.3
				C152.7,33.2,152.6,32.9,152.6,32.4z"/>
			<path class="st0" d="M189.1,26.5c-2.2,0-4.5,0.4-6.9,1.1c0.1,0.4,0.1,0.8,0.1,1.3c0,1.6-0.2,3.3-0.7,5.1c-0.5,1.8-1.1,3.5-2,5.2
				c-0.8,1.7-1.8,3.3-3,5c-1.1,1.6-2.3,3.1-3.6,4.5c-1.3,1.3-2.6,2.5-3.9,3.6c-1.4,1-2.7,1.8-3.9,2.4s-2.5,0.9-3.7,0.9
				c-1.2,0-2.2-0.3-3-1c-0.8-0.8-1.3-1.9-1.4-3.1c-0.1-1.3,0.2-2.6,0.7-4.1c0.6-1.5,1.4-3,2.5-4.6c1.1-1.6,2.4-3.2,3.9-4.7
				s3.2-3,5-4.4c1.8-1.4,3.7-2.6,5.7-3.8c2.1-1.1,4.1-2,6.1-2.7c-0.4-1.2-1.6-1.7-3.4-1.5c-0.8,0.1-1.7,0.3-2.7,0.6
				c-0.2,0.4-0.4,0.8-0.6,1c-0.4,0.7-1,1-1.6,1c-0.4,0-0.6-0.2-0.7-0.6c0-0.1,0-0.3,0.1-0.5c-0.2,0.1-0.7,0.2-1.4,0.5
				s-1.3,0.5-1.6,0.6c-0.3,0.1-0.7,0.3-1.3,0.4c-0.6,0.2-1.1,0.3-1.5,0.4s-0.8,0.2-1.2,0.3c-1.2,0.2-2.2,0-2.9-0.6
				c-0.7-0.6-0.8-1.5-0.4-2.6c0.5-1.5,1.8-2.9,3.9-4.2c2.1-1.3,4-2,5.7-2c1.6,0,2.8,0.5,3.4,1.5c0.7,1,0.8,2.3,0.3,3.8
				c0.9-0.2,1.6-0.4,2.3-0.5c2.2-0.3,3.7,0.4,4.4,2.1c2.5-0.7,4.9-1,7.2-0.9c0.2,0,0.3,0.1,0.4,0.2c0.1,0.1,0.1,0.2,0,0.4
				C189.5,26.4,189.4,26.5,189.1,26.5z M159.3,53.3c0.8,0.6,1.7,0.8,2.8,0.6c1.1-0.1,2.4-0.7,3.7-1.6c1.4-1,2.8-2.1,4.2-3.4
				s2.8-2.8,4.1-4.6c1.3-1.8,2.5-3.5,3.6-5.3c1-1.8,1.9-3.6,2.5-5.4c0.6-1.8,1-3.5,1-5c0-0.2,0-0.5,0-0.8c-1.8,0.6-3.5,1.3-5.3,2.3
				c-1.8,0.9-3.4,2-4.9,3.1c-1.5,1.1-2.9,2.3-4.2,3.6c-1.3,1.3-2.5,2.6-3.5,3.9c-1,1.3-1.9,2.6-2.7,3.9c-0.8,1.3-1.3,2.5-1.7,3.6
				s-0.5,2.1-0.5,3C158.6,52,158.9,52.8,159.3,53.3z M165.2,28.5c0.5-0.1,1.2-0.2,2-0.5c0.8-0.3,1.9-0.7,3.1-1.1
				c1.2-0.5,2.2-0.8,2.9-1.1c0.2-0.3,0.4-0.7,0.5-1.3c0.1-0.5,0.1-1,0-1.6c-0.1-0.5-0.3-0.9-0.8-1.2c-0.4-0.3-1.1-0.4-1.9-0.2
				c-1.5,0.3-3,1-4.8,2.1s-2.7,2.2-3.1,3.2c-0.2,0.6-0.1,1.1,0.3,1.3C164,28.5,164.5,28.6,165.2,28.5z"/>
			<path class="st0" d="M203.5,48.9c-0.3,0.3-0.4,0.1-0.4-0.7c0-1.2,0.2-2.6,0.6-4.3c0.4-2.8,0.9-5.3,1.3-7.3s1-4.3,1.7-6.8
				c0.9-5.1,1.1-9.1,0.6-12.1c-0.3-2-1.1-3.5-2.3-4.4c-1.3-0.9-2.8-1.1-4.7-0.7c-1.8,0.4-3.2,1.4-4.3,3.1c0,0.2-0.1,0.4-0.2,0.4
				c-0.2,0-0.3-0.1-0.4-0.3c-0.7-2.7,0.9-5.1,4.7-7.2c3.5-2,8.2-3.5,14.2-4.4c5.6-0.9,10.4-1,14.6-0.5c4,0.5,6.2,1.6,6.8,3.3
				c0.2,0.6,0.2,1.3-0.1,2.1c-0.2,0.8-0.8,1.3-1.6,1.5c-0.7,0.2-1.2,0.1-1.6-0.2c-0.4-0.4-0.2-1.1,0.6-1.9c0.7-1.3-0.1-2.2-2.5-2.8
				c-2.8-0.7-6.8-0.8-12-0.3c-5.9,0.6-11,1.7-15.2,3.3c-4.5,1.7-7,3.7-7.4,6c0,0.1,0,0.2,0,0.2c1-1.4,2.4-2.3,4.2-2.7
				c2-0.4,3.8-0.2,5.2,0.7c1.4,0.9,2.3,2.4,2.7,4.5c0.4,2.1,0.4,4.7,0,7.8c1.7-6.2,3.7-11.5,6.1-15.8c-0.1,0.1-0.2,0.2-0.3,0.3
				c-0.1,0.1-0.2,0.2-0.3,0.2c-0.1,0-0.1,0.1-0.1,0.1c-0.1,0.2-0.3,0.2-0.4,0.1c-0.1-0.1-0.1-0.3,0.1-0.5c1-1.4,1.8-2.3,2.5-2.9
				c0.5-0.5,1.1-0.7,1.8-0.7c0.7,0,1,0.2,1.2,0.6s-0.2,1.1-0.9,1.9c-1.6,1.4-3.3,4.4-5.2,8.8c-1.9,4.5-3.5,9.4-4.7,14.8
				c-0.3,1.8-0.5,3.3-0.7,4.4c-0.2,1.1-0.5,2.7-0.9,4.7c-0.4,2-0.8,3.7-1.3,5C204.4,47.4,204,48.3,203.5,48.9z"/>
			<path class="st0" d="M223.3,8.5c-0.2-0.2,0-1.1,0.7-2.6c0.7-1.5,1.6-2.9,2.6-4.1c1-1.2,1.6-1.7,1.9-1.2c0.1,0.5,0.2,1,0.1,1.4
				c0,0.4-0.2,0.8-0.4,1.3c-0.3,0.5-0.5,1-0.8,1.4c-0.2,0.4-0.5,0.9-0.9,1.5c-0.4,0.6-0.6,1.1-0.9,1.6c-3.1,7-5.4,13.9-7.1,20.6
				c0.2-0.5,0.4-1,0.7-1.5c0.3-0.5,0.6-1.1,1-1.6c0.4-0.5,0.8-0.9,1.2-1.2c0.4-0.3,0.9-0.3,1.3-0.2c0.4,0.2,0.8,0.8,0.9,1.8
				c0.2,1,0.3,2,0.4,3c0.1,1,0.3,1.6,0.7,1.8c0.4,0.3,1.1-0.2,2.1-1.5c1-1.2,1.8-2.3,2.2-3.3c0.2-0.3,0.4-0.4,0.6-0.3
				c0.2,0.1,0.2,0.2,0.1,0.4c-2.5,4.4-4.4,6.2-5.7,5.5c-0.4-0.3-0.7-0.9-0.9-2c-0.1-1-0.3-2-0.3-3c-0.1-0.9-0.2-1.4-0.5-1.4
				c-0.5-0.1-1.2,0.4-1.9,1.7c-0.8,1.2-1.5,2.6-2.1,4.2c-0.6,1.6-1.1,3.1-1.4,4.4c-0.1,0.5-0.3,0.7-0.5,0.7c-0.3,0-0.4-0.3-0.5-1
				c0-0.2,0-0.3,0-0.5c0.3-2.8,1.3-7,2.9-12.5S222,12,223.3,8.5z"/>
			<path class="st0" d="M236.3,34.3c-0.4,0.4-0.8,0.7-1.2,1c-0.4,0.3-0.9,0.5-1.5,0.7s-1,0.2-1.4-0.1c-0.4-0.2-0.7-0.7-0.9-1.4
				c-0.1-0.6-0.1-1.3,0.1-2.2s0.5-1.8,0.9-2.6c0.4-0.8,0.7-1.7,1.1-2.6c0.4-0.9,0.6-1.5,0.8-2c0.2-0.5,0.2-0.8,0-1
				c-0.2-0.1-1.3,0-3.4,0.3l-1,1.7c-0.1,0.3-0.4,0.4-0.6,0.3c-0.2,0-0.2-0.2-0.1-0.4c0.3-0.5,0.5-1,0.8-1.5
				c-2.4,0.2-3.9-0.3-4.5-1.5c-0.5-1-0.4-2.3,0.2-4c0.6-1.7,1.5-3.3,2.6-4.7c1.1-1.5,2.3-2.6,3.6-3.6c1.3-0.9,2.4-1.1,3.3-0.7
				c0.6,0.3,0.8,0.9,0.9,1.9c0,1-0.2,2-0.5,3c-0.4,1.1-0.8,2.2-1.3,3.4c-0.5,1.2-1,2.1-1.3,2.8c-0.4,0.7-0.6,1.1-0.8,1.4
				c1.7-0.3,2.9-0.3,3.6-0.1c0.7,0.2,1,0.6,1.1,1.3c0,0.5-0.3,1.4-1,2.7c-0.7,1.3-1.4,2.7-2.1,4.2c-0.7,1.5-1.1,2.7-1.2,3.7
				c0,0.9,0.4,1.2,1.4,0.9c0.6-0.2,1.2-0.6,1.8-1.1c1.4-1.4,2.6-2.7,3.5-3.9c0.9-1.2,1.8-2.6,2.7-4.2c0.1-0.3,0.4-0.4,0.6-0.3
				c0.2,0,0.2,0.2,0.1,0.4c-0.6,1-1,1.9-1.5,2.5c-0.4,0.7-1,1.5-1.8,2.6C238.3,32.1,237.3,33.2,236.3,34.3z M234.6,10.8
				c-0.7-0.1-1.7,0.8-3.2,2.5c-1.4,1.7-2.6,3.6-3.5,5.6c-0.9,2-1.1,3.2-0.4,3.7c0.2,0.2,0.8,0.2,1.6,0.2s1.5-0.1,1.8-0.2
				c0.8-1.2,1.8-3.4,3.1-6.7S235.5,10.9,234.6,10.8z"/>
			<path class="st0" d="M240.6,28.3c-1.1-0.8-1.3-1.8-0.7-2.9c0.6-1.1,1.4-1.9,2.6-2.3s2.2-0.4,3,0c0.4,0.3,0.6,0.8,0.6,1.4
				c0.1,0.6,0.1,1.3-0.1,2.1c-0.1,0.7-0.3,1.5-0.6,2.3c0.9-0.1,1.9-0.4,2.8-1c0.9-0.6,1.6-1.3,2-2c0.2-0.3,0.4-0.5,0.6-0.4
				c0.2,0.1,0.2,0.2,0.1,0.4c-0.6,1-1.4,1.8-2.4,2.5c-1,0.7-2.1,1.1-3.4,1.2c-0.5,1.3-1.2,2.5-1.9,3.4c-0.7,0.9-1.3,1.3-1.8,1.2
				c-0.8-0.1-1.2-0.8-1.4-2S240.1,29.6,240.6,28.3z M244.6,29c0.3-0.8,0.6-1.5,0.7-2.2c0.2-0.7,0.2-1.3,0.2-1.9c0-0.6-0.2-1-0.5-1.2
				c-0.4-0.2-0.9-0.3-1.6-0.1c-0.7,0.2-1.3,0.5-1.9,0.9c-0.6,0.4-1,0.9-1.2,1.5c-0.2,0.6-0.1,1.2,0.5,1.8c0.7-2,1.6-3.2,2.7-3.6
				c0.5-0.1,0.9-0.2,1.1,0c0.2,0.1,0.3,0.3,0.2,0.6s-0.3,0.6-0.7,0.8c-0.6,0.4-1.2,1.5-1.7,3.2C243,28.8,243.7,29,244.6,29z
				 M242.2,32.9c0.2,0,0.5-0.3,0.9-0.9c0.4-0.6,0.8-1.4,1.2-2.3c-0.8,0-1.6-0.1-2.2-0.4c-0.2,0.6-0.3,1.2-0.4,1.8
				c-0.1,0.6-0.1,1,0,1.4C241.8,32.7,242,32.9,242.2,32.9z"/>
			<path class="st0" d="M262.1,26c-1.3,2.4-2.6,3.7-4,3.7c-0.6,0-1.2-0.2-1.7-0.8c-0.5-0.6-0.7-1.3-0.6-2.4c0-0.2,0-0.2,0-0.3
				c0,0-0.1,0.1-0.3,0.3c-1.9,3-3.4,4.5-4.5,4.5c-0.9-0.1-1.4-0.6-1.5-1.6c-0.1-1,0-2.1,0.4-3.2c0.4-1.1,0.8-2,1.3-2.6
				c0.3-0.4,0.7-0.5,1.2-0.4c0.4,0.1,0.6,0.4,0.5,0.8c-0.1,0.3-0.2,0.6-0.6,0.9c-0.3,0.4-0.7,1-1,1.8c-0.3,0.8-0.5,1.5-0.6,2.1
				c-0.1,0.6,0,1,0.4,1.2c0.2,0,0.4,0,0.6-0.1c0.2-0.1,0.5-0.3,0.7-0.6c0.3-0.3,0.5-0.5,0.8-0.8s0.5-0.6,0.8-1
				c0.3-0.4,0.5-0.7,0.7-0.9c0.2-0.3,0.4-0.5,0.6-0.8c0.2-0.3,0.3-0.5,0.4-0.5c0.3-0.4,0.5-0.6,0.8-0.5c0.2,0.1,0.3,0.4,0.3,1
				c0,0.9,0,1.7,0.3,2.3c0.2,0.6,0.6,0.8,1.2,0.8c0.5-0.1,1.1-0.4,1.7-1c0.6-0.6,1.1-1.3,1.5-2.1c0.1-0.2,0.3-0.3,0.6-0.3
				C262.1,25.6,262.2,25.8,262.1,26z"/>
			<path class="st0" d="M292.3,8.5L292.3,8.5c-5.1,7.2-9.2,12.8-12.4,16.6c1.2,0.7,1.7,2,1.8,3.7c0,1.3-0.1,2.7-0.5,4.1
				c-0.3,1.5-0.8,2.9-1.4,4.3c-0.6,1.4-1.3,2.8-2.2,4.3c-0.8,1.4-1.8,2.8-2.7,4c-1,1.2-2,2.4-3.1,3.6c-1.1,1.2-2.2,2.1-3.3,3
				c-1.1,0.8-2.2,1.5-3.2,2.1c-1.1,0.6-2.1,0.9-3,1.1c-0.9,0.1-1.8,0.1-2.6-0.2c-0.5-0.4-0.7-1-0.8-1.7s0.1-1.6,0.5-2.6
				s0.9-2.1,1.5-3.2c0.6-1.1,1.4-2.4,2.4-3.9c1-1.4,2-2.8,3-4.2c1-1.4,2.2-2.9,3.6-4.6c1.4-1.7,2.7-3.3,3.9-4.7
				c1.2-1.4,2.6-3.1,4.2-4.9c-0.4,0-0.8,0-1,0c-0.8,0.1-1.7,0.3-2.7,0.6c-0.2,0.4-0.4,0.8-0.6,1c-0.4,0.7-1,1-1.6,1
				c-0.4,0-0.6-0.2-0.7-0.6c0-0.1,0-0.3,0.1-0.5c-0.2,0.1-0.7,0.2-1.4,0.5s-1.3,0.5-1.6,0.6c-0.3,0.1-0.7,0.3-1.3,0.4
				c-0.6,0.2-1.1,0.3-1.5,0.4c-0.4,0.1-0.8,0.2-1.2,0.3c-1.2,0.2-2.2,0-2.9-0.6c-0.7-0.6-0.8-1.5-0.4-2.6c0.5-1.5,1.8-2.9,3.9-4.2
				s4-2,5.7-2c1.6,0,2.8,0.5,3.4,1.5c0.7,1,0.8,2.3,0.3,3.8c0.9-0.2,1.6-0.4,2.3-0.5c0.7-0.1,1.2-0.1,1.8,0
				c4.2-4.8,9.3-11.6,15.4-20.4c0.7-1.2,1.4-2.2,2.1-3c0.7-0.7,1.2-1,1.4-0.6c0.1,0.5,0.2,1,0.1,1.4c0,0.4-0.2,0.8-0.4,1.3
				c-0.3,0.5-0.5,1-0.8,1.4s-0.5,0.9-0.9,1.5c-0.4,0.6-0.6,1.1-0.9,1.6c-3.1,7-5.4,13.9-7.1,20.6c0.2-0.5,0.4-1,0.7-1.5
				s0.6-1.1,1-1.6c0.4-0.5,0.8-0.9,1.2-1.2s0.9-0.3,1.3-0.2c0.4,0.2,0.8,0.8,0.9,1.8s0.3,2,0.4,3c0.1,1,0.3,1.6,0.7,1.8
				c0.4,0.3,1.1-0.2,2.1-1.5c1-1.2,1.8-2.3,2.2-3.3c0.2-0.3,0.4-0.4,0.6-0.3c0.2,0.1,0.2,0.2,0.1,0.4c-2.5,4.4-4.4,6.2-5.7,5.5
				c-0.4-0.3-0.7-0.9-0.9-2c-0.1-1-0.3-2-0.3-3c-0.1-0.9-0.2-1.4-0.5-1.4c-0.5-0.1-1.2,0.4-1.9,1.7c-0.8,1.2-1.5,2.6-2.1,4.2
				c-0.6,1.6-1.1,3.1-1.4,4.4c-0.1,0.5-0.3,0.7-0.5,0.7c-0.3,0-0.4-0.3-0.5-1c0-0.2,0-0.3,0-0.5c0.3-2.8,1.3-7,2.9-12.5
				S291,12,292.3,8.5z M280.6,28.6c0-1.5-0.4-2.4-1.2-2.9c-2.9,3.4-5.4,6.4-7.6,9.1c-2.1,2.6-4.2,5.4-6.3,8.2s-3.6,5.2-4.5,7.1
				c-0.9,1.9-1.1,3.2-0.6,3.9c0.7,0.4,1.7,0.3,3-0.3c1.3-0.6,2.7-1.6,4.1-2.9s3-2.9,4.5-4.8c1.6-1.9,3-3.8,4.2-5.8
				c1.3-2,2.3-4,3.1-6C280.1,32,280.6,30.2,280.6,28.6z M264.4,28.5c0.5-0.1,1.2-0.2,2-0.5c0.8-0.3,1.9-0.7,3.1-1.1
				c1.2-0.5,2.2-0.8,2.9-1.1c0.2-0.3,0.4-0.7,0.5-1.3c0.1-0.5,0.1-1,0-1.6c-0.1-0.5-0.3-0.9-0.8-1.2c-0.4-0.3-1.1-0.4-1.9-0.2
				c-1.5,0.3-3,1-4.8,2.1c-1.7,1.2-2.7,2.2-3.1,3.2c-0.2,0.6-0.1,1.1,0.3,1.3C263.2,28.5,263.7,28.6,264.4,28.5z"/>
			<path class="st0" d="M307.6,22.1c0.7-2.1,1.7-4.5,2.9-7.2c1.2-2.7,2.2-4.6,2.8-5.7c-0.7,0.6-1.5,1.1-2.4,1.4
				c-0.8,0.3-1.7,0.5-2.4,0.5c-0.8,0-1.4,0-2-0.1c-0.6-0.1-1.1-0.2-1.5-0.4c-0.4-0.2-0.6-0.5-0.6-1c0-0.4,0.2-0.6,0.5-0.7
				c0.2-0.1,0.5,0,0.7,0.3c0.2,0.2,0.5,0.4,1,0.5c0.4,0.1,1,0.2,1.8,0.2c0.8,0,1.5-0.2,2.3-0.5c0.8-0.3,1.7-1,2.7-1.9
				c1-0.9,1.9-2.2,2.8-3.6c0.4-0.7,1.1-1.2,1.9-1.3c0.7-0.1,1.2,0.1,1.4,0.6c0.4,0.8-0.3,2-1.8,3.6c-0.2,0.2-0.4,0.4-0.6,0.6
				c-1.1,1.1-2.1,2.6-3,4.4c-0.9,1.9-2.1,4.6-3.6,8.4c-1.1,2.9-2,5.8-2.8,8.6c-0.8,2.8-1.3,5.6-1.7,8.3c-0.4,2.7-0.3,4.9,0.2,6.8
				c0.5,1.8,1.5,2.9,2.9,3.3c0.9,0.2,1.9,0.1,3-0.4c1.1-0.5,2.2-1.2,3.2-2.1c1-0.9,2.2-2.1,3.3-3.5c1.2-1.4,2.3-2.8,3.2-4
				c0.9-1.3,1.9-2.7,2.9-4.3c1-1.6,1.8-2.9,2.4-3.8c0.6-0.9,1.1-1.9,1.7-2.9c0.1-0.3,0.4-0.4,0.6-0.3c0.2,0,0.2,0.2,0.1,0.4
				c-0.6,1.1-1.2,2.2-1.8,3.2c-0.6,1-1.4,2.4-2.5,4.1c-1.1,1.7-2.1,3.2-3.1,4.6c-1,1.4-2.1,2.8-3.4,4.3s-2.5,2.7-3.6,3.6
				c-1.1,0.9-2.3,1.6-3.5,2.1c-1.2,0.5-2.3,0.5-3.3,0.2c-1-0.3-1.9-1-2.5-1.9c-0.6-1-1.1-2.1-1.2-3.5c-0.2-1.4-0.3-2.9-0.2-4.5
				c0.1-1.6,0.2-3.4,0.6-5.2c0.3-1.9,0.7-3.7,1.1-5.4C306.6,25.6,307.1,23.8,307.6,22.1z"/>
			<path class="st0" d="M327.9,28.3c-1.1-0.8-1.3-1.8-0.7-2.9c0.6-1.1,1.4-1.9,2.6-2.3s2.2-0.4,3,0c0.4,0.3,0.6,0.8,0.6,1.4
				c0.1,0.6,0.1,1.3-0.1,2.1c-0.1,0.7-0.3,1.5-0.6,2.3c0.9-0.1,1.9-0.4,2.8-1c0.9-0.6,1.6-1.3,2-2c0.2-0.3,0.4-0.5,0.6-0.4
				c0.2,0.1,0.2,0.2,0.1,0.4c-0.6,1-1.4,1.8-2.4,2.5c-1,0.7-2.1,1.1-3.4,1.2c-0.5,1.3-1.2,2.5-1.9,3.4c-0.7,0.9-1.3,1.3-1.8,1.2
				c-0.8-0.1-1.2-0.8-1.4-2S327.5,29.6,327.9,28.3z M332,29c0.3-0.8,0.6-1.5,0.7-2.2c0.2-0.7,0.2-1.3,0.2-1.9c0-0.6-0.2-1-0.5-1.2
				c-0.4-0.2-0.9-0.3-1.6-0.1c-0.7,0.2-1.3,0.5-1.9,0.9c-0.6,0.4-1,0.9-1.2,1.5c-0.2,0.6-0.1,1.2,0.5,1.8c0.7-2,1.6-3.2,2.7-3.6
				c0.5-0.1,0.9-0.2,1.1,0c0.2,0.1,0.3,0.3,0.2,0.6s-0.3,0.6-0.7,0.8c-0.6,0.4-1.2,1.5-1.7,3.2C330.3,28.8,331.1,29,332,29z
				 M329.6,32.9c0.2,0,0.5-0.3,0.9-0.9c0.4-0.6,0.8-1.4,1.2-2.3c-0.8,0-1.6-0.1-2.2-0.4c-0.2,0.6-0.3,1.2-0.4,1.8
				c-0.1,0.6-0.1,1,0,1.4C329.2,32.7,329.4,32.9,329.6,32.9z"/>
			<path class="st0" d="M364.5,26.5c-2.2,0-4.5,0.4-6.9,1.1c0.1,0.4,0.1,0.8,0.1,1.3c0,1.6-0.2,3.3-0.7,5.1c-0.5,1.8-1.1,3.5-2,5.2
				c-0.8,1.7-1.8,3.3-3,5c-1.1,1.6-2.3,3.1-3.6,4.5c-1.3,1.3-2.6,2.5-3.9,3.6c-1.4,1-2.7,1.8-3.9,2.4c-1.3,0.6-2.5,0.9-3.7,0.9
				s-2.2-0.3-3-1c-0.8-0.8-1.3-1.9-1.4-3.1c-0.1-1.3,0.2-2.6,0.7-4.1c0.6-1.5,1.4-3,2.5-4.6c1.1-1.6,2.4-3.2,3.9-4.7s3.2-3,5-4.4
				c1.8-1.4,3.7-2.6,5.7-3.8c2.1-1.1,4.1-2,6.1-2.7c-0.4-1.2-1.6-1.7-3.4-1.5c-0.8,0.1-1.7,0.3-2.7,0.6c-0.2,0.4-0.4,0.8-0.6,1
				c-0.4,0.7-1,1-1.6,1c-0.4,0-0.6-0.2-0.7-0.6c0-0.1,0-0.3,0.1-0.5c-0.2,0.1-0.7,0.2-1.4,0.5s-1.3,0.5-1.6,0.6
				c-0.3,0.1-0.7,0.3-1.3,0.4c-0.6,0.2-1.1,0.3-1.5,0.4c-0.4,0.1-0.8,0.2-1.2,0.3c-1.2,0.2-2.2,0-2.9-0.6c-0.7-0.6-0.8-1.5-0.4-2.6
				c0.5-1.5,1.8-2.9,3.9-4.2s4-2,5.7-2c1.6,0,2.8,0.5,3.4,1.5c0.7,1,0.8,2.3,0.3,3.8c0.9-0.2,1.6-0.4,2.3-0.5
				c2.2-0.3,3.7,0.4,4.4,2.1c2.5-0.7,4.9-1,7.2-0.9c0.2,0,0.3,0.1,0.4,0.2c0.1,0.1,0.1,0.2,0,0.4C364.9,26.4,364.8,26.5,364.5,26.5z
				 M334.7,53.3c0.8,0.6,1.7,0.8,2.8,0.6c1.1-0.1,2.4-0.7,3.7-1.6c1.4-1,2.8-2.1,4.2-3.4s2.8-2.8,4.1-4.6c1.3-1.8,2.5-3.5,3.6-5.3
				s1.9-3.6,2.5-5.4c0.6-1.8,1-3.5,1-5c0-0.2,0-0.5,0-0.8c-1.8,0.6-3.5,1.3-5.3,2.3c-1.8,0.9-3.4,2-4.9,3.1
				c-1.5,1.1-2.9,2.3-4.2,3.6c-1.3,1.3-2.5,2.6-3.5,3.9c-1,1.3-1.9,2.6-2.7,3.9c-0.8,1.3-1.3,2.5-1.7,3.6s-0.5,2.1-0.5,3
				C334,52,334.3,52.8,334.7,53.3z M340.6,28.5c0.5-0.1,1.2-0.2,2-0.5c0.8-0.3,1.9-0.7,3.1-1.1c1.2-0.5,2.2-0.8,2.9-1.1
				c0.2-0.3,0.4-0.7,0.5-1.3c0.1-0.5,0.1-1,0-1.6c-0.1-0.5-0.3-0.9-0.8-1.2c-0.4-0.3-1.1-0.4-1.9-0.2c-1.5,0.3-3,1-4.8,2.1
				c-1.7,1.2-2.7,2.2-3.1,3.2c-0.2,0.6-0.1,1.1,0.3,1.3C339.4,28.5,339.9,28.6,340.6,28.5z"/>
			<path class="st0" d="M365.3,32.7c-0.8,0-1.3-0.2-1.7-0.9c-0.3-0.6-0.5-1.3-0.4-2.2c0.1-0.8,0.2-1.7,0.5-2.5
				c0.3-0.8,0.6-1.5,1-1.9c0.2-0.2,0.4-0.3,0.7-0.2c0.3,0.1,0.4,0.2,0.5,0.4c0.1,0.2,0,0.5-0.2,0.8c-0.4,0.6-0.8,1.5-1.1,2.8
				c-0.5,1.8-0.3,2.8,0.5,2.9c0.1,0,0.2,0,0.2,0c0.5,0,1.3-0.8,2.3-2.2c1-1.4,1.8-2.7,2.4-3.8c0.1-0.2,0.3-0.3,0.6-0.3
				c0.2,0,0.3,0.1,0.2,0.4c0,0-0.1,0.2-0.3,0.5s-0.3,0.5-0.4,0.8c-0.1,0.2-0.3,0.5-0.5,0.9c-0.2,0.4-0.4,0.7-0.6,1
				c-0.2,0.3-0.4,0.6-0.7,1c-0.3,0.4-0.5,0.7-0.8,1c-0.2,0.3-0.5,0.5-0.7,0.8c-0.3,0.2-0.5,0.4-0.8,0.6
				C365.8,32.6,365.5,32.7,365.3,32.7z M365.7,23.3c0-0.2,0.1-0.4,0.3-0.5c0.2-0.1,0.4-0.1,0.7,0c0.2,0.1,0.3,0.3,0.3,0.5
				c0,0.3-0.1,0.5-0.3,0.7s-0.4,0.2-0.7,0C365.8,23.9,365.7,23.6,365.7,23.3z"/>
			<path class="st0" d="M378.2,43.3c-0.8-0.2-1.2-1.2-1.2-3c0-1.7,0.3-4,1-6.8c0.7-2.8,1.4-5.6,2.3-8.5c0.9-2.9,1.9-6,3-9.2
				l-1.7,0.2c-3.4,5-6.3,8.8-8.6,11.5c1.7,2.9,2,5.4,0.7,7.4c-0.8,1.1-1.9,2.1-3.3,2.8c-1.4,0.7-2.4,0.8-3.2,0.3
				c-1.2-1.3,0.2-4.6,4.2-10.1c-0.1-0.1-0.3-0.3-0.5-0.6c-0.2-0.3-0.4-0.5-0.5-0.6c-0.1-0.1-0.2-0.3-0.4-0.6s-0.3-0.4-0.4-0.6
				c-0.1-0.2-0.2-0.3-0.2-0.5s-0.1-0.4-0.2-0.6c0-0.2,0-0.4,0-0.5c0-0.5,0.2-1,0.5-1.4c0.3-0.4,0.6-0.7,0.9-0.8
				c0.5-0.2,0.8-0.2,1.1,0.1c0.3,0.2,0.4,0.5,0.3,0.9c-0.1,0.4-0.3,0.6-0.7,0.8c-0.6,0.4-0.3,1.4,0.7,3c0.1,0.1,0.1,0.2,0.2,0.3
				c2-2.4,4.6-5.9,7.6-10.4c-3.2,0.4-6,0.8-8.5,1.2c0.1,0,0.2,0.1,0.3,0.2c0.1,0.1,0.2,0.2,0.2,0.3c0.1,0.2,0,0.4-0.2,0.4
				c-0.2,0-0.3-0.1-0.3-0.3c-0.2-0.2-0.9-0.3-2.1-0.2s-2.1,0.2-2.4,0.4c-0.3,0.3-0.6,0.3-0.8,0c-0.2-0.3-0.2-0.6,0.1-0.9
				c0.1-0.1,0.2-0.2,0.4-0.3c3.7-1,8.5-1.7,14.3-2.2c3.5-5.2,5.9-9.3,7.4-12.4l0.4-0.8c0.3-0.5,0.6-0.9,1-1.2
				c0.3-0.2,0.6-0.3,0.9-0.3s0.4,0.2,0.6,0.5c0.2,0.7,0.2,1.4,0,2.1c-0.2,0.7-0.7,1.6-1.4,2.7c-0.7,1.1-1.2,1.9-1.4,2.5
				c-0.9,2-1.9,4.2-2.8,6.6c8-0.5,15.3-0.7,22-0.4c0.6,0,0.9,0.1,1,0.3c0,0.2-0.1,0.3-0.4,0.4c-0.2,0.1-0.5,0.1-0.8,0.1
				c-5.8-0.3-13.2,0-22.3,0.8c-1.5,3.9-2.8,7.8-4,11.7c-1.2,3.9-2,7.3-2.6,10.1c-0.5,2.8-0.5,4.5,0.1,5.1c0.3,0,0.5,0.1,0.5,0.3
				c0,0.2-0.1,0.4-0.4,0.5C378.5,43.3,378.4,43.3,378.2,43.3z M373,34.3c0.8-1.5,0.5-3.4-1-5.6c-1.2,1.4-2.2,3.1-3.2,4.9
				c-1,1.8-1.3,3-1,3.6c0.4,0.4,1.2,0.3,2.3-0.4C371.3,36.2,372.3,35.3,373,34.3z M385.1,10.6l-2.7,4.1l1.3-0.1
				C384.2,13,384.7,11.7,385.1,10.6z"/>
			<path class="st0" d="M385.6,32.7c-0.8,0-1.3-0.2-1.7-0.9c-0.3-0.6-0.5-1.3-0.4-2.2c0.1-0.8,0.2-1.7,0.5-2.5
				c0.3-0.8,0.6-1.5,1-1.9c0.2-0.2,0.4-0.3,0.7-0.2c0.3,0.1,0.4,0.2,0.5,0.4c0.1,0.2,0,0.5-0.2,0.8c-0.4,0.6-0.8,1.5-1.1,2.8
				c-0.5,1.8-0.3,2.8,0.5,2.9c0.1,0,0.2,0,0.2,0c0.5,0,1.3-0.8,2.3-2.2c1-1.4,1.8-2.7,2.4-3.8c0.1-0.2,0.3-0.3,0.6-0.3
				c0.2,0,0.3,0.1,0.2,0.4c0,0-0.1,0.2-0.3,0.5s-0.3,0.5-0.4,0.8c-0.1,0.2-0.3,0.5-0.5,0.9c-0.2,0.4-0.4,0.7-0.6,1
				c-0.2,0.3-0.4,0.6-0.7,1c-0.3,0.4-0.5,0.7-0.8,1c-0.2,0.3-0.5,0.5-0.7,0.8c-0.3,0.2-0.5,0.4-0.8,0.6
				C386,32.6,385.8,32.7,385.6,32.7z M385.9,23.3c0-0.2,0.1-0.4,0.3-0.5c0.2-0.1,0.4-0.1,0.7,0c0.2,0.1,0.3,0.3,0.3,0.5
				c0,0.3-0.1,0.5-0.3,0.7s-0.4,0.2-0.7,0C386,23.9,385.9,23.6,385.9,23.3z"/>
			<path class="st0" d="M393.8,26.6c-0.3,0.4-0.6,0.6-1,0.5c-0.3-0.1-0.4-0.2-0.3-0.6c0-0.1,0.1-0.3,0.3-0.4
				c0.3-0.3,0.3-0.6,0.2-0.8s-0.4-0.2-0.8,0.1c-0.3,0.2-0.5,0.6-0.8,1.1c-0.3,0.5-0.5,1-0.7,1.6c-0.2,0.6-0.3,1.2-0.4,1.8
				c-0.1,0.6-0.1,1.1,0.1,1.5c0.2,0.4,0.4,0.6,0.9,0.7c0.4,0,1-0.2,1.5-0.7c0.6-0.5,1.1-1.1,1.6-1.8s1-1.4,1.3-2
				c0.4-0.6,0.7-1.1,0.9-1.6c0.1-0.2,0.3-0.3,0.6-0.3c0.2,0,0.3,0.1,0.2,0.4c0,0-0.1,0.2-0.3,0.5s-0.3,0.5-0.4,0.7
				c-0.1,0.2-0.3,0.5-0.5,0.9c-0.2,0.4-0.4,0.7-0.6,1c-0.2,0.3-0.4,0.6-0.7,1s-0.5,0.7-0.8,0.9c-0.2,0.3-0.5,0.5-0.8,0.8
				s-0.6,0.5-0.8,0.6c-0.3,0.2-0.5,0.3-0.8,0.3c-0.3,0.1-0.6,0.1-0.8,0c-0.7-0.2-1.2-0.6-1.5-1.3s-0.4-1.5-0.2-2.3
				c0.1-0.9,0.4-1.7,0.7-2.6c0.4-0.8,0.9-1.5,1.5-2.1c0.6-0.6,1.3-0.8,1.9-0.8c0.5,0,0.9,0.4,1,1C394.4,25.4,394.2,26,393.8,26.6z"
				/>
			<path class="st0" d="M393.5,33c1.2-0.8,2.5-1.6,4-2.5c-0.1-0.4-0.2-1-0.4-1.8c-0.2-0.8-0.4-1.5-0.5-2.2c-0.1-0.6-0.1-1.2-0.1-1.7
				c0-0.5,0.2-1,0.5-1.4c0.3-0.4,0.6-0.7,0.9-0.8c0.5-0.2,0.8-0.2,1.1,0.1s0.4,0.5,0.3,0.9c-0.1,0.4-0.3,0.6-0.7,0.8
				c-0.2,0.2-0.4,0.4-0.5,0.6c-0.1,0.3-0.1,0.6-0.1,1c0,0.4,0.1,0.8,0.1,1.1c0.1,0.3,0.2,0.8,0.3,1.3c0.1,0.6,0.2,1,0.3,1.4
				c2.9-1.9,4.7-3.2,5.4-3.8c0.3-0.2,0.5-0.2,0.6,0c0.1,0.1,0,0.3-0.2,0.4c-0.6,0.6-2.5,2-5.8,4.1c0.2,1.8-0.2,3.2-1.2,4.2
				c-0.7,0.7-1.8,1.1-3.1,1.1c-1.1,0-1.8-0.2-2.1-0.7C392,34.4,392.3,33.7,393.5,33z M396.9,34c0.6-0.6,0.8-1.6,0.6-2.9
				c-0.8,0.5-2.1,1.4-3.9,2.5c-0.8,0.5-0.9,0.9-0.5,1.2c0.5,0.3,1.2,0.3,2.1,0.1C396,34.7,396.5,34.4,396.9,34z"/>
		</g>
	</g>
</g>
</svg>
