
<svg version="1.1" id="Layer_1" xmlns="http://www.w3.org/2000/svg" xmlns:xlink="http://www.w3.org/1999/xlink" x="0px" y="0px"
	 viewBox="0 0 26 30" style="enable-background:new 0 0 26 30;" xml:space="preserve">
<style type="text/css">
	.st0{fill:#494950; filter:url(#shadow)}
</style>
<filter id="shadow">
      <!-- <feDropShadow dx="0.2" dy="0.4" stdDeviation="0.2"/> -->
      <feDropShadow dx="0.2" dy="0.4" stdDeviation="0.2"/>
</filter>
<path class="st0" d="M4.5,14C3.7,14,3,14.7,3,15.5v6C3,22.3,3.7,23,4.5,23S6,22.3,6,21.5v-6C6,14.7,5.3,14,4.5,14z M5,21.5
	C5,21.8,4.8,22,4.5,22S4,21.8,4,21.5v-6C4,15.2,4.2,15,4.5,15S5,15.2,5,15.5V21.5z"/>
<path class="st0" d="M3.5,22h-2C0.7,22,0,21.3,0,20.5v-4C0,15.7,0.7,15,1.5,15h2C3.8,15,4,15.2,4,15.5v6C4,21.8,3.8,22,3.5,22z
	 M1.5,16C1.2,16,1,16.2,1,16.5v4C1,20.8,1.2,21,1.5,21H3v-5H1.5z M21.5,23c-0.8,0-1.5-0.7-1.5-1.5v-6c0-0.8,0.7-1.5,1.5-1.5
	s1.5,0.7,1.5,1.5v6C23,22.3,22.3,23,21.5,23z M21.5,15c-0.3,0-0.5,0.2-0.5,0.5v6c0,0.3,0.2,0.5,0.5,0.5s0.5-0.2,0.5-0.5v-6
	C22,15.2,21.8,15,21.5,15z"/>
<path class="st0" d="M24.5,22h-2c-0.3,0-0.5-0.2-0.5-0.5v-6c0-0.3,0.2-0.5,0.5-0.5h2c0.8,0,1.5,0.7,1.5,1.5v4
	C26,21.3,25.3,22,24.5,22z M23,21h1.5c0.3,0,0.5-0.2,0.5-0.5v-4c0-0.3-0.2-0.5-0.5-0.5H23V21z M15.5,30h-1c-0.8,0-1.5-0.7-1.5-1.5
	s0.7-1.5,1.5-1.5h1c0.8,0,1.5,0.7,1.5,1.5S16.3,30,15.5,30z M14.5,28c-0.3,0-0.5,0.2-0.5,0.5s0.2,0.5,0.5,0.5h1
	c0.3,0,0.5-0.2,0.5-0.5S15.8,28,15.5,28H14.5z"/>
<path class="st0" d="M18.5,29h-2c-0.3,0-0.5-0.2-0.5-0.5s0.2-0.5,0.5-0.5h2c3,0,5.5-2.5,5.5-5.5v-1c0-0.3,0.2-0.5,0.5-0.5
	s0.5,0.2,0.5,0.5v1C25,26.1,22.1,29,18.5,29z M23.4,12.5c-0.8,0-1.4-0.6-1.5-1.3C21.5,6.5,17.7,3,13,3s-8.5,3.5-9,8.2
	c-0.1,0.7-0.7,1.3-1.5,1.3c-0.4,0-0.8-0.2-1.1-0.5S1,11.3,1,10.8C1.6,4.7,6.8,0,13,0s11.4,4.7,11.9,10.9c0,0.4-0.1,0.8-0.4,1.2
	C24.3,12.3,23.9,12.5,23.4,12.5z M13,2c5.2,0,9.5,3.9,10,9.1c0,0.2,0.2,0.4,0.5,0.4c0.1,0,0.3-0.1,0.4-0.2c0.1-0.1,0.1-0.2,0.1-0.4
	C23.4,5.3,18.7,1,13,1S2.6,5.3,2,10.9c0,0.1,0,0.3,0.1,0.4C2.4,11.6,2.9,11.4,3,11C3.5,5.9,7.8,2,13,2z"/>
<path class="st0" d="M23.5,12c-0.3,0-0.5,0.2-0.5,0.5v3c0,0.3,0.2,0.5,0.5,0.5s0.5-0.2,0.5-0.5v-3C24,12.2,23.8,12,23.5,12z"/>
<path class="st0" d="M2.5,12C2.2,12,2,12.2,2,12.5v3C2,15.8,2.2,16,2.5,16S3,15.8,3,15.5v-3C3,12.2,2.8,12,2.5,12z"/>
</svg>
