<svg version="1.1" id="Layer_1" xmlns="http://www.w3.org/2000/svg" xmlns:xlink="http://www.w3.org/1999/xlink" x="0px" y="0px"
	 viewBox="0 0 463.1 74.3" style="enable-background:new 0 0 463.1 74.3;" xml:space="preserve">
<style type="text/css">
	.st0{fill:none;stroke:#FFFFFF;stroke-width:0.5;stroke-miterlimit:10;}
</style>
<g>
	<path class="st0" d="M0.4,40.3h5.9c0.2,2.3,0.8,4.3,2,6.1c1.2,1.8,2.9,3.2,5,4.3c2.1,1,4.6,1.6,7.4,1.6c2.5,0,4.5-0.4,6.2-1.1
		c1.7-0.7,2.9-1.8,3.8-3.1c0.8-1.3,1.3-2.8,1.3-4.6c0-1.8-0.4-3.3-1.3-4.3c-0.9-1.1-2.1-2-3.8-2.8c-1.6-0.8-3.6-1.5-5.8-2.2
		c-2.1-0.7-4.3-1.4-6.5-2.3c-2.2-0.9-4.2-1.9-6.1-3.2c-1.9-1.3-3.4-2.8-4.6-4.6c-1.1-1.8-1.7-3.9-1.7-6.4c0-2.5,0.7-4.8,2-6.9
		c1.3-2.2,3.3-3.9,5.9-5.2c2.6-1.3,5.7-2,9.4-2c5.7,0,10,1.6,12.9,4.7c2.8,3.1,4.2,7.2,4.1,12.4h-5.9c-0.1-3.9-1.2-6.7-3.3-8.4
		c-2.1-1.7-4.8-2.5-8.1-2.5c-2.8,0-5.2,0.6-7.3,1.9c-2.1,1.3-3.1,3.3-3.1,6c0,1.2,0.2,2.3,0.7,3.2c0.5,0.9,1.2,1.7,2.3,2.5
		c1.1,0.8,2.5,1.5,4.3,2.3c1.8,0.7,4.1,1.5,6.8,2.4c1.7,0.5,3.5,1.2,5.4,2c1.8,0.8,3.5,1.7,5.1,2.9c1.6,1.1,2.8,2.6,3.8,4.4
		c1,1.8,1.4,4,1.4,6.7c0,2.6-0.6,5-1.8,7.2s-3.1,4-5.7,5.4c-2.6,1.4-5.9,2-10,2c-3.5,0-6.5-0.5-9-1.4c-2.5-1-4.5-2.2-6.1-3.7
		c-1.6-1.5-2.8-3.1-3.6-4.8c-0.8-1.7-1.4-3.2-1.7-4.7C0.2,42.3,0.2,41.2,0.4,40.3z"/>
	<path class="st0" d="M44.8,40.3h5.9c0.2,2.3,0.8,4.3,2,6.1c1.2,1.8,2.9,3.2,5,4.3c2.1,1,4.6,1.6,7.4,1.6c2.5,0,4.5-0.4,6.2-1.1
		c1.7-0.7,2.9-1.8,3.8-3.1c0.8-1.3,1.3-2.8,1.3-4.6c0-1.8-0.4-3.3-1.3-4.3c-0.9-1.1-2.1-2-3.8-2.8c-1.6-0.8-3.6-1.5-5.8-2.2
		c-2.1-0.7-4.3-1.4-6.5-2.3c-2.2-0.9-4.2-1.9-6.1-3.2c-1.9-1.3-3.4-2.8-4.6-4.6c-1.1-1.8-1.7-3.9-1.7-6.4c0-2.5,0.7-4.8,2-6.9
		c1.3-2.2,3.3-3.9,5.9-5.2c2.6-1.3,5.7-2,9.4-2c5.7,0,10,1.6,12.9,4.7c2.8,3.1,4.2,7.2,4.1,12.4h-5.9c-0.1-3.9-1.2-6.7-3.3-8.4
		c-2.1-1.7-4.8-2.5-8.1-2.5c-2.8,0-5.2,0.6-7.3,1.9c-2.1,1.3-3.1,3.3-3.1,6c0,1.2,0.2,2.3,0.7,3.2c0.5,0.9,1.2,1.7,2.3,2.5
		c1.1,0.8,2.5,1.5,4.3,2.3c1.8,0.7,4.1,1.5,6.8,2.4c1.7,0.5,3.5,1.2,5.4,2c1.8,0.8,3.5,1.7,5.1,2.9s2.8,2.6,3.8,4.4
		c1,1.8,1.4,4,1.4,6.7c0,2.6-0.6,5-1.8,7.2s-3.1,4-5.7,5.4c-2.6,1.4-5.9,2-10,2c-3.5,0-6.5-0.5-9-1.4c-2.5-1-4.5-2.2-6.1-3.7
		c-1.6-1.5-2.8-3.1-3.6-4.8c-0.8-1.7-1.4-3.2-1.7-4.7C44.6,42.3,44.5,41.2,44.8,40.3z"/>
	<path class="st0" d="M89.1,40.3H95c0.2,2.3,0.8,4.3,2,6.1c1.2,1.8,2.9,3.2,5,4.3c2.1,1,4.6,1.6,7.4,1.6c2.5,0,4.5-0.4,6.2-1.1
		c1.7-0.7,2.9-1.8,3.8-3.1c0.8-1.3,1.3-2.8,1.3-4.6c0-1.8-0.4-3.3-1.3-4.3c-0.9-1.1-2.1-2-3.8-2.8c-1.6-0.8-3.6-1.5-5.8-2.2
		c-2.1-0.7-4.3-1.4-6.5-2.3c-2.2-0.9-4.2-1.9-6.1-3.2c-1.9-1.3-3.4-2.8-4.6-4.6c-1.1-1.8-1.7-3.9-1.7-6.4c0-2.5,0.7-4.8,2-6.9
		c1.3-2.2,3.3-3.9,5.9-5.2c2.6-1.3,5.7-2,9.4-2c5.7,0,10,1.6,12.9,4.7c2.8,3.1,4.2,7.2,4.1,12.4h-5.9c-0.1-3.9-1.2-6.7-3.3-8.4
		c-2.1-1.7-4.8-2.5-8.1-2.5c-2.8,0-5.2,0.6-7.3,1.9c-2.1,1.3-3.1,3.3-3.1,6c0,1.2,0.2,2.3,0.7,3.2c0.5,0.9,1.2,1.7,2.3,2.5
		c1.1,0.8,2.5,1.5,4.3,2.3c1.8,0.7,4.1,1.5,6.8,2.4c1.7,0.5,3.5,1.2,5.4,2c1.8,0.8,3.5,1.7,5.1,2.9s2.8,2.6,3.8,4.4
		c1,1.8,1.4,4,1.4,6.7c0,2.6-0.6,5-1.8,7.2s-3.1,4-5.7,5.4c-2.6,1.4-5.9,2-10,2c-3.5,0-6.5-0.5-9-1.4c-2.5-1-4.5-2.2-6.1-3.7
		c-1.6-1.5-2.8-3.1-3.6-4.8c-0.8-1.7-1.4-3.2-1.7-4.7C88.9,42.3,88.9,41.2,89.1,40.3z"/>
	<path class="st0" d="M160.9,4.4v47.1h29.5v6.1h-36.1V4.4H160.9z"/>
	<path class="st0" d="M216,58.5c-3.5,0-6.8-0.8-9.8-2.5c-3.1-1.7-5.5-4.1-7.4-7.3c-1.9-3.2-2.8-7-2.8-11.4c0-4.4,0.9-8.2,2.8-11.4
		c1.9-3.2,4.4-5.7,7.4-7.4c3.1-1.7,6.3-2.6,9.8-2.6c3.5,0,6.8,0.9,9.8,2.6c3,1.8,5.5,4.2,7.3,7.4c1.9,3.2,2.8,7,2.8,11.4
		c0,4.4-0.9,8.2-2.8,11.4c-1.9,3.2-4.3,5.6-7.3,7.3C222.7,57.6,219.5,58.5,216,58.5z M216,52.3c2.3,0,4.5-0.6,6.5-1.7
		c2-1.1,3.7-2.9,5-5.1c1.3-2.3,1.9-5,1.9-8.2c0-3.2-0.6-6-1.9-8.2c-1.3-2.3-2.9-4-5-5.2c-2-1.2-4.2-1.8-6.5-1.8s-4.5,0.6-6.5,1.8
		c-2,1.2-3.7,2.9-5,5.2c-1.3,2.3-2,5-2,8.3c0,3.2,0.6,6,1.9,8.2c1.3,2.3,3,4,5,5.1C211.5,51.7,213.7,52.3,216,52.3z"/>
	<path class="st0" d="M258.9,51.2c-2.9,0-5.6-0.7-8.2-2.1s-4.7-3.4-6.3-6c-1.6-2.6-2.4-5.8-2.4-9.4c0-3.7,0.8-6.8,2.4-9.5
		c1.6-2.7,3.7-4.7,6.2-6.1c2.6-1.4,5.4-2.2,8.4-2.2c0.9,0,1.8,0.1,2.7,0.2c0.8,0.1,1.7,0.3,2.4,0.6h16.6v7.1c-2.4,0-4.7-0.4-7-1.3
		c-2.3-0.9-4.3-1.8-5.9-2.7l-0.3-0.3c1.9,1,3.5,2.3,4.7,3.7c1.2,1.4,2.2,3,2.8,4.8c0.6,1.8,0.9,3.7,0.9,5.8c0,3.7-0.8,6.8-2.3,9.4
		c-1.6,2.6-3.6,4.6-6.2,6C264.7,50.5,261.9,51.2,258.9,51.2z M271,74v-1.8c0-2.9-0.8-5-2.3-6.3c-1.5-1.3-3.8-2-6.8-2h-8.2
		c-1.8,0-3.4-0.2-4.7-0.5c-1.3-0.3-2.4-0.8-3.3-1.4c-0.9-0.6-1.5-1.3-2-2.2c-0.4-0.9-0.7-1.9-0.7-3c0-2.1,0.6-3.6,1.9-4.7
		c1.3-1.1,2.8-1.7,4.7-2c1.9-0.3,3.6-0.3,5.3,0l3.9,0.9c-3,0.2-5.2,0.5-6.8,0.9c-1.6,0.4-2.4,1.4-2.4,2.8c0,0.8,0.3,1.5,0.9,2
		c0.6,0.5,1.6,0.8,2.8,0.8h8.5c2.8,0,5.4,0.4,7.8,1.2c2.3,0.8,4.2,2.1,5.7,4c1.4,1.9,2.1,4.5,2.1,7.7V74H271z M258.9,45
		c1.8,0,3.5-0.4,5-1.3c1.6-0.9,2.8-2.2,3.8-3.9c1-1.7,1.5-3.8,1.5-6.2s-0.5-4.6-1.4-6.3c-1-1.7-2.2-3-3.8-3.9
		c-1.6-0.9-3.3-1.4-5.1-1.4s-3.5,0.5-5.1,1.4c-1.6,0.9-2.9,2.2-3.9,3.9c-1,1.7-1.5,3.8-1.5,6.3c0,2.5,0.5,4.5,1.5,6.2
		c1,1.7,2.3,3,3.9,3.9C255.4,44.6,257.1,45,258.9,45z"/>
	<path class="st0" d="M296.5,0.3v8H288v-8H296.5z M288.9,16.6h6.6v41h-6.6V16.6z"/>
	<path class="st0" d="M304.8,44.4h6.1c0.2,2.4,1.1,4.3,2.7,5.7c1.6,1.5,3.9,2.2,7,2.2c1.9,0,3.3-0.2,4.4-0.7c1.1-0.5,1.8-1.2,2.3-2
		c0.5-0.8,0.7-1.8,0.7-2.8c0-1.3-0.3-2.3-0.9-3c-0.6-0.7-1.5-1.4-2.5-1.8c-1.1-0.5-2.3-1-3.6-1.4c-1.6-0.6-3.2-1.2-4.9-1.9
		c-1.7-0.7-3.2-1.5-4.7-2.5c-1.4-1-2.6-2.1-3.5-3.5c-0.9-1.4-1.3-3.1-1.3-5c0-1.6,0.3-3.2,1-4.6c0.7-1.4,1.6-2.7,2.8-3.8
		c1.2-1.1,2.7-1.9,4.3-2.5c1.7-0.6,3.5-0.9,5.5-0.9c2.7,0,5,0.5,6.9,1.6c1.9,1.1,3.3,2.6,4.3,4.6c1,2,1.5,4.3,1.6,6.9h-5.7
		c-0.4-2.5-1.2-4.2-2.3-5.4c-1.2-1.1-2.9-1.7-5-1.7c-2.2,0-4,0.5-5.2,1.5c-1.2,1-1.8,2.3-1.8,3.9c0,1.2,0.4,2.2,1.3,3
		c0.9,0.8,2,1.5,3.4,2.1c1.4,0.6,2.9,1.3,4.5,1.9c1.6,0.7,3.1,1.3,4.6,2c1.5,0.7,2.8,1.4,3.9,2.3c1.1,0.9,2.1,2,2.7,3.2
		c0.7,1.3,1,2.9,1,4.8c0,2.3-0.5,4.3-1.6,6.1c-1.1,1.8-2.6,3.2-4.7,4.1c-2.1,1-4.6,1.5-7.5,1.5c-2.7,0-5-0.3-6.8-1
		c-1.9-0.7-3.5-1.6-4.7-2.7c-1.3-1.1-2.2-2.3-2.9-3.6c-0.7-1.3-1.1-2.5-1.4-3.7C304.7,46.3,304.7,45.3,304.8,44.4z"/>
	<path class="st0" d="M340,16.6h24.1v6.1H340V16.6z M348.8,6h6.6v51.7h-6.6V6z"/>
	<path class="st0" d="M380.1,0.3v8h-8.5v-8H380.1z M372.5,16.6h6.6v41h-6.6V16.6z"/>
	<path class="st0" d="M426.7,42.2c-0.4,3.4-1.5,6.3-3.2,8.7c-1.8,2.4-4,4.3-6.7,5.6c-2.7,1.3-5.6,1.9-8.7,1.9
		c-3.5,0-6.8-0.8-9.8-2.5c-3.1-1.7-5.5-4.1-7.4-7.3c-1.9-3.2-2.8-7-2.8-11.4c0-4.4,0.9-8.2,2.8-11.4c1.9-3.2,4.4-5.7,7.4-7.4
		c3.1-1.7,6.3-2.6,9.8-2.6c3.1,0,6,0.7,8.7,2c2.7,1.3,4.9,3.2,6.6,5.6c1.8,2.4,2.9,5.3,3.3,8.6h-6c-0.9-3.1-2.5-5.6-4.8-7.3
		c-2.3-1.8-4.9-2.7-7.8-2.7c-2.4,0-4.6,0.6-6.6,1.8c-2.1,1.2-3.7,2.9-5,5.2c-1.3,2.3-1.9,5-1.9,8.2c0,3.2,0.6,5.9,1.9,8.2
		c1.3,2.3,2.9,4,5,5.2c2,1.2,4.3,1.8,6.7,1.8c3.3,0,6.1-0.9,8.2-2.7c2.1-1.8,3.6-4.3,4.6-7.4H426.7z"/>
	<path class="st0" d="M433.1,44.4h6.1c0.2,2.4,1.1,4.3,2.7,5.7c1.6,1.5,3.9,2.2,7,2.2c1.9,0,3.3-0.2,4.4-0.7c1.1-0.5,1.8-1.2,2.3-2
		c0.5-0.8,0.7-1.8,0.7-2.8c0-1.3-0.3-2.3-0.9-3c-0.6-0.7-1.5-1.4-2.5-1.8c-1.1-0.5-2.3-1-3.6-1.4c-1.6-0.6-3.2-1.2-4.9-1.9
		c-1.7-0.7-3.2-1.5-4.7-2.5c-1.4-1-2.6-2.1-3.5-3.5c-0.9-1.4-1.3-3.1-1.3-5c0-1.6,0.3-3.2,1-4.6c0.7-1.4,1.6-2.7,2.8-3.8
		c1.2-1.1,2.7-1.9,4.3-2.5c1.7-0.6,3.5-0.9,5.5-0.9c2.7,0,5,0.5,6.9,1.6c1.9,1.1,3.3,2.6,4.3,4.6c1,2,1.5,4.3,1.6,6.9h-5.7
		c-0.4-2.5-1.2-4.2-2.3-5.4c-1.2-1.1-2.9-1.7-5-1.7c-2.2,0-4,0.5-5.2,1.5c-1.2,1-1.8,2.3-1.8,3.9c0,1.2,0.4,2.2,1.3,3
		c0.9,0.8,2,1.5,3.4,2.1c1.4,0.6,2.9,1.3,4.5,1.9c1.6,0.7,3.1,1.3,4.6,2c1.5,0.7,2.8,1.4,3.9,2.3c1.1,0.9,2.1,2,2.7,3.2
		c0.7,1.3,1,2.9,1,4.8c0,2.3-0.5,4.3-1.6,6.1c-1.1,1.8-2.6,3.2-4.7,4.1c-2.1,1-4.6,1.5-7.5,1.5c-2.7,0-5-0.3-6.8-1
		c-1.9-0.7-3.5-1.6-4.7-2.7c-1.3-1.1-2.2-2.3-2.9-3.6c-0.7-1.3-1.1-2.5-1.4-3.7C433,46.3,433,45.3,433.1,44.4z"/>
</g>
</svg>
